<svg xmlns="http://www.w3.org/2000/svg" xmlns:xlink="http://www.w3.org/1999/xlink" width="231" height="231" viewBox="0 0 231 231">
  <defs>
    <filter id="Ellipse_100" x="0" y="0" width="231" height="231" filterUnits="userSpaceOnUse">
      <feOffset dx="3" dy="6" input="SourceAlpha"/>
      <feGaussianBlur stdDeviation="6" result="blur"/>
      <feFlood flood-opacity="0.122"/>
      <feComposite operator="in" in2="blur"/>
      <feComposite in="SourceGraphic"/>
    </filter>
  </defs>
  <g id="Group_15529" data-name="Group 15529" transform="translate(-85 -46)">
    <g transform="matrix(1, 0, 0, 1, 85, 46)" filter="url(#Ellipse_100)">
      <circle id="Ellipse_100-2" data-name="Ellipse 100" cx="97.5" cy="97.5" r="97.5" transform="translate(15 12)" fill="#fff"/>
    </g>
    <g id="Group_15591" data-name="Group 15591" transform="translate(6734.752 -1553.3)">
      <path id="Path_21028" data-name="Path 21028" d="M-6465.612,1699.767c-.018.166-.037.332-.054.5a15.633,15.633,0,0,1-.609,2.759,10.694,10.694,0,0,1-.884,2.306,3.286,3.286,0,0,1-1.639,1.53,3.061,3.061,0,0,1-4.066-1.921,6.206,6.206,0,0,1-.318-1.774c-.032-.885-.047-1.771-.03-2.657a6.516,6.516,0,0,1,.385-2.269,3.331,3.331,0,0,1,2.61-2.163,3.856,3.856,0,0,1,3.638,1.094,3.22,3.22,0,0,1,.934,2.126c0,.068.022.135.033.2Z" fill="#f20c90"/>
      <path id="Path_21029" data-name="Path 21029" d="M-6483.9,1708.059v-.185c0-2.57-.017-5.141.012-7.711a4.464,4.464,0,0,1,1-2.874,3.579,3.579,0,0,1,2.365-1.26,4.7,4.7,0,0,1,2.127.166,3.625,3.625,0,0,1,2.391,2.524,5.9,5.9,0,0,1,.261,1.8q.007,8.625,0,17.25a3.7,3.7,0,0,1-3.163,3.788,4.257,4.257,0,0,1-4.152-1.472c-.68-.787-1.309-1.617-1.954-2.432-1.218-1.538-2.452-3.064-3.637-4.626-.705-.93-1.33-1.92-1.992-2.883-.034-.05-.071-.1-.106-.148l-.04.012v.184c0,2.377.015,4.755-.009,7.132a4.708,4.708,0,0,1-.917,2.877,3.544,3.544,0,0,1-2.428,1.372,4.622,4.622,0,0,1-2.337-.227,3.63,3.63,0,0,1-2.2-2.451,5.731,5.731,0,0,1-.266-1.767q-.007-8.683,0-17.369a3.673,3.673,0,0,1,3.122-3.7,4.314,4.314,0,0,1,4.389,1.681c.863,1.1,1.683,2.229,2.515,3.351,1.23,1.658,2.465,3.314,3.676,4.986.436.6.811,1.244,1.213,1.868l.08.121Z" fill="#ff6e0c"/>
      <path id="Path_21030" data-name="Path 21030" d="M-6544.222,1708.055v-.186c0-2.576-.015-5.151.015-7.726a4.451,4.451,0,0,1,.991-2.847,3.546,3.546,0,0,1,2.318-1.261,4.622,4.622,0,0,1,2.354.22,3.631,3.631,0,0,1,2.218,2.47,5.182,5.182,0,0,1,.242,1.457c.01.505.022,1.01.022,1.515q0,7.971,0,15.942a3.956,3.956,0,0,1-.687,2.382,3.691,3.691,0,0,1-2.6,1.552,4.187,4.187,0,0,1-3.545-1.017,10.5,10.5,0,0,1-1.113-1.232c-1.635-2.054-3.276-4.1-4.875-6.185-.741-.964-1.391-2-2.082-3a.445.445,0,0,0-.134-.139c0,.06-.009.12-.009.179,0,2.367.015,4.735-.008,7.1a4.748,4.748,0,0,1-.912,2.909,3.545,3.545,0,0,1-2.438,1.382,4.611,4.611,0,0,1-2.323-.222,3.649,3.649,0,0,1-2.238-2.544,5.936,5.936,0,0,1-.239-1.712q0-8.654,0-17.309a3.711,3.711,0,0,1,3.127-3.724,4.316,4.316,0,0,1,4.379,1.673c.8,1.017,1.565,2.07,2.338,3.112,1.289,1.738,2.583,3.473,3.854,5.224.438.6.816,1.252,1.221,1.88l.08.119Z" fill="#ff6e0c"/>
      <path id="Path_21031" data-name="Path 21031" d="M-6608.882,1708.809c0-2.68-.031-5.359.01-8.038a4.282,4.282,0,0,1,3.32-4.139,5.1,5.1,0,0,1,1.187-.148c2-.014,4.007-.049,6.008.005a13.273,13.273,0,0,1,8.292,2.939,11.27,11.27,0,0,1,3.86,6.2,13.324,13.324,0,0,1,.351,3.857,11.856,11.856,0,0,1-2.507,6.956,11.909,11.909,0,0,1-5.3,3.787,12.871,12.871,0,0,1-3.25.774c-.664.066-1.333.112-2,.117-1.884.015-3.768.036-5.651-.006a4.321,4.321,0,0,1-4.229-3.55,5.318,5.318,0,0,1-.094-1c-.007-2.585,0-5.17,0-7.755Zm8.141-.016q0,2.132,0,4.263c0,.208,0,.209.2.209.634,0,1.27.018,1.9-.006a7.148,7.148,0,0,0,1.308-.148,4.017,4.017,0,0,0,2.976-2.441,4.95,4.95,0,0,0,.272-2.8,3.992,3.992,0,0,0-1.249-2.354,4.693,4.693,0,0,0-3.213-1.179c-.659-.014-1.319,0-1.978,0-.222,0-.222,0-.222.221Q-6600.742,1706.675-6600.741,1708.793Z" fill="#ff6e0c"/>
      <path id="Path_21032" data-name="Path 21032" d="M-6525.052,1713.634v.171c0,1.253.01,2.506,0,3.759a4.2,4.2,0,0,1-.622,2.229,3.78,3.78,0,0,1-2.782,1.778,4.256,4.256,0,0,1-2.693-.43,3.747,3.747,0,0,1-1.965-2.718,5.246,5.246,0,0,1-.091-1.016c0-5.82-.018-11.639,0-17.458a3.83,3.83,0,0,1,3.119-3.866,4.11,4.11,0,0,1,3.8.979,3.785,3.785,0,0,1,1.175,2.355,8.228,8.228,0,0,1,.058,1.006c.007,1.074,0,2.149,0,3.224v.175l.061.047a.442.442,0,0,1,.042-.108q1.8-2.34,3.594-4.677c.434-.559.866-1.123,1.342-1.645a3.955,3.955,0,0,1,2.325-1.282,3.937,3.937,0,0,1,3.077.78,4.171,4.171,0,0,1,1.717,2.861,4.213,4.213,0,0,1-.571,2.693,10.027,10.027,0,0,1-1.2,1.55q-1.934,2.268-3.87,4.532c-.032.037-.061.077-.1.127.2.233.406.463.609.692q2.166,2.448,4.333,4.9a4.336,4.336,0,0,1,1.092,2.3,4.261,4.261,0,0,1-1.03,3.446,4.1,4.1,0,0,1-2.381,1.439,3.693,3.693,0,0,1-2.9-.638,6.827,6.827,0,0,1-1.385-1.378c-1.293-1.585-2.593-3.165-3.885-4.751-.251-.307-.481-.629-.721-.945l-.108-.14Z" fill="#ff6e0c"/>
      <path id="Path_21033" data-name="Path 21033" d="M-6583.687,1705.71c0-1.927-.028-3.854.008-5.78a3.9,3.9,0,0,1,3.341-3.888,4.028,4.028,0,0,1,3.56,1.031,3.851,3.851,0,0,1,1.19,2.365,7.289,7.289,0,0,1,.058.946q.006,5.238,0,10.475a2.677,2.677,0,0,0,1.806,2.553,2.6,2.6,0,0,0,3.354-1.91,3.705,3.705,0,0,0,.09-.807c.006-3.546,0-7.092,0-10.638a4.053,4.053,0,0,1,.917-2.637,3.829,3.829,0,0,1,2.54-1.393,4.133,4.133,0,0,1,2.822.561,3.814,3.814,0,0,1,1.787,2.667,5.985,5.985,0,0,1,.089,1.061c.006,3.621.017,7.241,0,10.861a10.617,10.617,0,0,1-1.7,5.9,9.751,9.751,0,0,1-5.511,4.043,10.024,10.024,0,0,1-2.444.446,18.182,18.182,0,0,1-2.048.022,10.623,10.623,0,0,1-6.34-2.446,9.741,9.741,0,0,1-3.134-5.021,10.472,10.472,0,0,1-.362-2.292c-.014-.317-.025-.633-.026-.95q0-2.585,0-5.17Z" fill="#ff6e0c"/>
      <path id="Path_21034" data-name="Path 21034" d="M-6509.95,1708.789c0-2.951-.022-5.9.008-8.854a3.824,3.824,0,0,1,2.76-3.759,4.184,4.184,0,0,1,3.932.69,3.7,3.7,0,0,1,1.365,2.346,6.248,6.248,0,0,1,.09,1.076q.007,8.616,0,17.233a4.072,4.072,0,0,1-1.032,2.819,3.818,3.818,0,0,1-2.373,1.233,4.29,4.29,0,0,1-2.64-.405,3.745,3.745,0,0,1-2.016-2.746,5.518,5.518,0,0,1-.092-1.046q-.01-4.293,0-8.587Z" fill="#ff6e0c"/>
      <path id="Path_21035" data-name="Path 21035" d="M-6472.74,1721.367a1.543,1.543,0,0,1-1.576-1.534,1.557,1.557,0,0,1,1.579-1.519,1.547,1.547,0,0,1,1.576,1.538A1.536,1.536,0,0,1-6472.74,1721.367Zm0-2.656a1.138,1.138,0,0,0-1.139,1.141,1.161,1.161,0,0,0,1.141,1.135,1.138,1.138,0,0,0,1.136-1.145A1.113,1.113,0,0,0-6472.744,1718.711Z" fill="#ff6e0c"/>
      <path id="Path_21036" data-name="Path 21036" d="M-6472.881,1720.119c0,.078,0,.155,0,.233-.006.161-.1.264-.225.26s-.2-.1-.2-.258q0-.512,0-1.023c0-.181.059-.243.236-.247.153,0,.307,0,.46,0a.448.448,0,0,1,.437.276.5.5,0,0,1-.058.545.156.156,0,0,0,0,.248.761.761,0,0,1,.092.134.194.194,0,0,1-.046.277.2.2,0,0,1-.291-.033c-.09-.1-.166-.221-.252-.33a.917.917,0,0,0-.107-.1Zm.006-.332c.214.02.269-.021.311-.1a.228.228,0,0,0-.028-.233.492.492,0,0,0-.283-.048Z" fill="#ff6e0c"/>
    </g>
  </g>
</svg>