<svg xmlns:xlink="http://www.w3.org/1999/xlink" xmlns="http://www.w3.org/2000/svg" width="30" height="30" viewBox="0 0 30 30"><g transform="translate(-176 -12)"><circle cx="15" cy="15" r="15" transform="translate(176 12)" class="css__bzfrmP" fill="#FBFBFB"></circle> <path d="M7.239,5.766a3.713,3.713,0,1,0,3.713,3.713A3.707,3.707,0,0,0,7.239,5.766Zm0,6.127A2.414,2.414,0,1,1,9.653,9.479a2.418,2.418,0,0,1-2.414,2.414ZM11.97,5.614a.866.866,0,1,1-.866-.866A.864.864,0,0,1,11.97,5.614Zm2.459.879a4.286,4.286,0,0,0-1.17-3.034,4.314,4.314,0,0,0-3.034-1.17c-1.2-.068-4.779-.068-5.975,0A4.308,4.308,0,0,0,1.215,3.455,4.3,4.3,0,0,0,.046,6.49c-.068,1.2-.068,4.779,0,5.975A4.286,4.286,0,0,0,1.215,15.5a4.319,4.319,0,0,0,3.034,1.17c1.2.068,4.779.068,5.975,0a4.286,4.286,0,0,0,3.034-1.17,4.314,4.314,0,0,0,1.17-3.034c.068-1.2.068-4.776,0-5.972Zm-1.545,7.255a2.444,2.444,0,0,1-1.377,1.377,15.96,15.96,0,0,1-4.269.291,16.085,16.085,0,0,1-4.269-.291,2.444,2.444,0,0,1-1.377-1.377A15.96,15.96,0,0,1,1.3,9.479,16.085,16.085,0,0,1,1.593,5.21,2.444,2.444,0,0,1,2.97,3.833a15.96,15.96,0,0,1,4.269-.291,16.085,16.085,0,0,1,4.269.291A2.444,2.444,0,0,1,12.884,5.21a15.96,15.96,0,0,1,.291,4.269A15.951,15.951,0,0,1,12.884,13.747Z" transform="translate(183.762 17.521)" class="css__t50HSw" fill="#F20C90"></path></g></svg>