<svg xmlns:xlink="http://www.w3.org/1999/xlink" xmlns="http://www.w3.org/2000/svg" width="27.773" height="28.589" viewBox="0 0 27.773 28.589"><g transform="translate(-252.762 -12.705)"><ellipse cx="13.886" cy="14.295" rx="13.886" ry="14.295" transform="translate(252.762 12.705)" class="css__bzfrmP" fill="#FBFBFB"></ellipse> <path d="M10.318.015C11.269,0,12.213.007,13.157,0a4.522,4.522,0,0,0,1.27,3.027,5.12,5.12,0,0,0,3.078,1.3V7.252a7.77,7.77,0,0,1-3.049-.7,8.969,8.969,0,0,1-1.176-.675c-.007,2.12.007,4.24-.015,6.352a5.545,5.545,0,0,1-.98,2.86A5.408,5.408,0,0,1,8,17.415a5.293,5.293,0,0,1-2.962-.748,5.474,5.474,0,0,1-2.65-4.145c-.015-.363-.022-.726-.007-1.082A5.465,5.465,0,0,1,8.714,6.592c.015,1.074-.029,2.149-.029,3.223a2.491,2.491,0,0,0-3.18,1.539,2.88,2.88,0,0,0-.1,1.169,2.471,2.471,0,0,0,2.541,2.083,2.439,2.439,0,0,0,2.011-1.169,1.675,1.675,0,0,0,.3-.769c.073-1.3.044-2.592.051-3.891.007-2.926-.007-5.844.015-8.762Z" transform="translate(256.709 17.881)" class="css__t50HSw" fill="#FF6E0C"></path></g></svg>