<svg xmlns:xlink="http://www.w3.org/1999/xlink" xmlns="http://www.w3.org/2000/svg" width="30" height="30" viewBox="0 0 30 30"><g transform="translate(-138 -12)"><circle cx="15" cy="15" r="15" transform="translate(138 12)" class="css__bzfrmP" fill="#FBFBFB"></circle> <path d="M14.329,6.613c.01.142.01.284.01.426a9.249,9.249,0,0,1-9.313,9.313A9.25,9.25,0,0,1,0,14.883a6.772,6.772,0,0,0,.79.041,6.555,6.555,0,0,0,4.064-1.4,3.279,3.279,0,0,1-3.06-2.27,4.128,4.128,0,0,0,.618.051,3.462,3.462,0,0,0,.861-.111A3.274,3.274,0,0,1,.649,7.982V7.941a3.3,3.3,0,0,0,1.48.415A3.278,3.278,0,0,1,1.115,3.979,9.3,9.3,0,0,0,7.864,7.4a3.7,3.7,0,0,1-.081-.75,3.276,3.276,0,0,1,5.665-2.24,6.444,6.444,0,0,0,2.077-.79,3.264,3.264,0,0,1-1.439,1.8,6.562,6.562,0,0,0,1.885-.507,7.036,7.036,0,0,1-1.642,1.692Z" transform="translate(145.895 17.133)" class="css__t50HSw" fill="#FF6E0C"></path></g></svg>