<svg xmlns:xlink="http://www.w3.org/1999/xlink" xmlns="http://www.w3.org/2000/svg" width="30" height="30" viewBox="0 0 30 30"><g transform="translate(-214 -12)"><circle cx="15" cy="15" r="15" transform="translate(214 12)" class="css__bzfrmP" fill="#FBFBFB"></circle> <path d="M16.722,6.261a2.011,2.011,0,0,0-1.415-1.424A47.529,47.529,0,0,0,9.053,4.5,47.529,47.529,0,0,0,2.8,4.837,2.011,2.011,0,0,0,1.384,6.261a21.1,21.1,0,0,0-.334,3.878,21.1,21.1,0,0,0,.334,3.878,1.981,1.981,0,0,0,1.415,1.4,47.529,47.529,0,0,0,6.254.337,47.529,47.529,0,0,0,6.254-.337,1.981,1.981,0,0,0,1.415-1.4,21.1,21.1,0,0,0,.334-3.878,21.1,21.1,0,0,0-.334-3.878ZM7.416,12.518V7.759l4.183,2.38-4.183,2.38Z" transform="translate(219.947 16.873)" class="css__t50HSw" fill="#FF6E0C"></path></g></svg>